<svg xmlns="http://www.w3.org/2000/svg" fill="none" viewBox="0 0 140 140" height="140" width="140">
<rect stroke-width="1.5" stroke="#818181" rx="69.1979" height="138.396" width="138.396" y="0.75" x="0.75"></rect>
<path fill="#818181" d="M36 89.0701C36.3719 87.4624 36.8835 85.9258 37.8832 84.6394C38.1017 84.3581 38.3174 84.0724 38.558 83.8148C39.035 83.307 39.6448 83.2818 40.0554 83.7274C40.4467 84.1508 40.4426 84.7933 40.0402 85.3248C39.8245 85.609 39.5895 85.874 39.3821 86.1656C37.5085 88.8081 37.579 91.8829 39.5839 94.4025C41.163 96.3877 43.2176 97.5853 45.3995 98.5476C49.1508 100.204 53.0886 101.038 57.0708 101.645C62.0388 102.402 67.0358 102.639 72.0467 102.571C72.2693 102.568 72.503 102.559 72.7145 102.623C73.2317 102.778 73.5123 103.169 73.4722 103.77C73.4335 104.368 73.1183 104.747 72.5776 104.776C71.6817 104.821 70.7829 104.817 69.8856 104.811C63.904 104.771 57.9599 104.278 52.0848 102.986C48.5797 102.214 45.1493 101.169 41.9815 99.2833C40.1854 98.2145 38.5193 96.9221 37.4477 94.9798C36.8241 93.8444 36.4743 92.5268 36 91.2907C36 90.5505 36 89.8103 36 89.0701Z"></path>
<path fill="#818181" d="M104.996 63.751C104.95 63.8842 104.892 64.013 104.862 64.1492C104.434 66.124 103.375 67.5526 101.625 68.1669C97.8155 69.5022 95.093 72.2587 92.9636 75.8486C92.1962 77.1425 91.6805 77.4771 90.8426 77.1869C90.06 76.916 89.7572 76.2617 89.7986 74.8035C89.9825 68.3579 92.3649 63.0418 96.7494 58.8183C99.5701 56.1003 104.018 57.8117 104.846 61.8664C104.885 62.053 104.945 62.235 104.994 62.4186V63.751H104.996ZM91.9072 73.4711C92.0981 73.2521 92.163 73.1899 92.2142 73.1159C94.4915 69.8102 97.3039 67.3261 100.961 66.0603C102.183 65.637 102.837 64.577 102.927 63.1603C103.007 61.9005 102.273 60.5874 101.202 60.0648C100.018 59.4874 98.8815 59.6488 97.9593 60.6347C96.9969 61.6621 96.0595 62.7399 95.2478 63.9108C93.3328 66.6762 92.2488 69.825 91.9086 73.4711H91.9072Z"></path>
<path fill="#818181" d="M104.998 91.291C103.983 96.2829 100.522 98.6189 96.6617 100.462C92.9934 102.213 89.1094 103.137 85.1646 103.708C82.4075 104.108 79.6311 104.338 76.8602 104.61C76.5504 104.641 76.1025 104.577 75.9351 104.358C75.7125 104.068 75.5867 103.565 75.6323 103.184C75.6987 102.634 76.155 102.45 76.6431 102.4C79.0338 102.157 81.4341 101.984 83.8123 101.634C88.4029 100.962 92.9339 99.9883 97.1677 97.8003C98.6182 97.0512 99.9663 96.126 101.089 94.8454C103.476 92.1215 103.542 88.5597 101.259 85.7337C101.095 85.5309 100.911 85.3473 100.75 85.1415C100.326 84.5953 100.317 84.0002 100.717 83.5486C101.131 83.0823 101.729 83.0853 102.215 83.6034C103.549 85.029 104.475 86.7167 104.861 88.7374C104.893 88.9002 104.954 89.0572 105.001 89.217V91.2896L104.998 91.291Z"></path>
<path fill="#818181" d="M54.6504 75.1204C54.6725 71.4757 55.4855 68.3314 57.1904 65.5053C58.6035 63.1619 60.0913 60.8747 61.5542 58.5697C61.998 57.871 62.5898 57.7126 63.1 58.1123C63.6033 58.5076 63.6475 59.1575 63.2009 59.874C61.727 62.2307 60.1839 64.5387 58.7819 66.9458C54.0116 75.1293 57.7241 86.4024 66.1585 89.2374C73.8864 91.8354 82.4424 87.1485 84.0643 77.3958C84.7031 73.5497 83.9606 69.948 82.0567 66.6423C78.6981 60.8096 75.3396 54.9769 71.9782 49.1456C71.3491 48.0531 70.6896 48.0413 70.0134 49.1057C68.6653 51.2285 67.3241 53.3573 65.9788 55.4831C65.8764 55.6445 65.781 55.8133 65.6663 55.9643C65.257 56.5017 64.7025 56.5994 64.2393 56.2263C63.8052 55.8755 63.6711 55.2492 64.0043 54.7148C65.5681 52.2159 67.0904 49.6815 68.7552 47.2655C69.9775 45.4906 72.3626 45.7363 73.5144 47.6475C74.492 49.2715 75.4184 50.9325 76.3655 52.5786C78.8723 56.9324 81.4013 61.2714 83.8777 65.646C87.763 72.509 86.9763 81.418 81.8271 86.9724C77.1785 91.9864 71.5413 93.452 65.3731 91.2536C59.3501 89.1071 55.9695 84.2411 54.844 77.4432C54.7997 77.1767 54.761 76.9073 54.7416 76.6378C54.6988 76.0471 54.6711 75.4565 54.6518 75.1204H54.6504Z"></path>
<path fill="#818181" d="M68.5245 98.4102C64.2092 98.3865 58.0797 97.7928 52.101 95.895C51.5202 95.7099 50.9409 95.5131 50.3726 95.2866C49.7656 95.0438 49.496 94.4827 49.6647 93.9009C49.8472 93.2688 50.3754 92.9609 51.0059 93.1874C57.8557 95.6507 64.924 96.2888 72.0684 96.157C78.0789 96.046 84.0328 95.3739 89.7585 93.2066C91.1896 92.6648 92.564 91.9039 93.8927 91.1C94.5785 90.6855 95.18 90.0208 95.6875 89.3502C96.383 88.4309 96.3926 87.405 95.6723 86.5138C95.057 85.7529 94.3338 85.026 93.5319 84.5316C92.3068 83.7766 90.9822 83.214 89.6838 82.6115C88.9123 82.2533 88.5929 81.7425 88.821 81.0616C89.0312 80.4324 89.5981 80.2103 90.3406 80.4931C92.3165 81.2481 94.2467 82.1186 95.8976 83.5738C96.383 84.0016 96.8448 84.4916 97.2278 85.029C98.5773 86.9224 98.5482 89.0453 97.1849 90.9328C96.2129 92.2769 94.9297 93.1815 93.5526 93.929C90.4485 95.6152 87.1231 96.5301 83.7383 97.1918C79.3303 98.0519 74.8808 98.4161 68.5259 98.4116L68.5245 98.4102Z"></path>
<path fill="#818181" d="M61.9913 47.2791C61.9913 47.55 62.0052 47.8224 61.9886 48.0918C61.9402 48.9016 61.5171 49.5011 60.8838 49.6773C60.2008 49.8683 59.6339 49.6181 59.1955 48.9371C58.5996 48.0119 58.0451 47.0511 57.398 46.1717C55.4941 43.5825 53.1421 41.7039 50.2288 40.6603C47.7787 39.7824 46.4389 37.1399 46.9311 34.4131C47.4095 31.7632 49.6066 29.8801 52.1037 30.006C53.2113 30.0622 54.2179 30.4708 55.0516 31.2835C59.4168 35.5381 61.7964 40.8379 61.9927 47.2791H61.9913ZM59.844 45.5914C59.8288 45.6876 59.8537 45.621 59.8468 45.5574C59.2965 40.4219 57.1492 36.2117 53.5915 32.8942C52.0733 31.4789 49.7559 32.3124 49.066 34.3731C48.4507 36.2102 49.2817 37.9823 51.1193 38.6514C52.7301 39.2376 54.2773 39.9882 55.5646 41.1902C57.0593 42.5848 58.4364 44.1318 59.844 45.5914Z"></path>
<path fill="#818181" d="M36.2731 61.6772C36.2993 58.7801 38.9043 56.7282 41.3558 57.8C45.414 59.575 48.2181 62.7356 49.6243 67.3204C49.8663 68.1109 49.6837 68.7608 49.1583 69.1575C48.6301 69.5558 48.019 69.5143 47.4244 68.9903C45.8302 67.5809 44.1032 66.4544 42.0582 66.065C41.3102 65.9229 40.54 65.9259 39.7796 65.8637C37.7539 65.6964 36.2523 63.9037 36.2717 61.6772H36.2731ZM46.6239 65.3929C46.6156 65.5114 46.6349 65.4566 46.6197 65.4225C46.5713 65.313 46.5119 65.2064 46.451 65.1028C45.0656 62.7208 43.1436 61.0436 40.7986 59.9303C40.0616 59.5809 39.3772 59.726 38.8172 60.3448C38.2987 60.9177 38.1577 61.6239 38.4245 62.3907C38.7135 63.2182 39.2845 63.6002 40.0851 63.6416C40.8235 63.6786 41.5881 63.6476 42.2891 63.8578C43.7631 64.2989 45.2011 64.8807 46.6239 65.3929Z"></path>
<path fill="#818181" d="M42.7305 88.0547C42.7637 86.6157 43.2517 85.535 44.0357 84.5994C45.4392 82.9251 47.2477 81.954 49.1185 81.0998C49.6757 80.8452 50.2481 80.6246 50.822 80.4188C51.4995 80.1761 52.0429 80.4544 52.2351 81.1057C52.4121 81.7083 52.1162 82.216 51.4815 82.5387C49.8624 83.3618 48.2294 84.1627 46.6545 85.0791C46.1042 85.3988 45.6438 85.9806 45.2511 86.5358C44.5625 87.5099 44.5611 88.5195 45.3202 89.4314C45.9314 90.1657 46.6905 90.7578 47.4095 91.3752C48.0303 91.9081 48.1658 92.7223 47.5948 93.1753C47.3431 93.3737 46.855 93.5247 46.6227 93.3885C44.864 92.3641 43.3278 91.0761 42.8245 88.7889C42.7623 88.5047 42.7484 88.2071 42.7305 88.0532V88.0547Z"></path>
</svg>
