<svg xmlns="http://www.w3.org/2000/svg" fill="none" viewBox="0 0 140 140" height="140" width="140">
<path fill="#818181" d="M59.1685 88.7312C66.3296 96.9254 79.6013 95.6 85.0946 86.194C89.8994 77.9714 86.5814 67.4319 78.0577 63.3988C75.6198 65.3354 72.6141 65.9892 69.5765 65.2608L63.8704 75.8642C62.7419 77.2359 60.8576 77.9074 59.172 77.1221C58.1891 79.2613 57.2806 82.1716 54.2963 81.2441C53.6965 81.0593 48.9805 78.5009 48.5333 78.1064C46.4645 76.2835 48.3807 73.821 49.4027 71.9945C48.1181 70.829 47.5539 69.7523 47.7526 67.9614C53.5298 56.1605 59.8888 44.5159 66.216 32.985C67.5041 31.823 68.92 31.7946 70.556 32.0327C71.7234 29.9823 72.4332 27.0685 75.453 28.1168C76.3686 28.433 80.4495 30.5722 81.1556 31.1514C83.4232 33.0134 81.2763 35.4511 80.3714 37.3628C82.0286 38.8268 82.5041 40.5929 81.5921 42.6645C80.6801 44.7362 79.2003 46.8292 78.2103 48.8759L78.1642 49.2633C78.7248 49.8887 79.2926 50.5034 79.7575 51.2105C79.9988 51.5765 80.5878 52.9375 80.7049 53.037C80.9498 53.2395 83.3806 54.1563 84.0229 54.5081C100.322 63.4166 102.724 86.059 88.7212 98.2295L86.0314 100.33H89.9774C91.5495 100.33 93.519 102.309 93.9129 103.787C94.2109 104.896 94.2677 109.64 94.0796 110.83C93.998 111.359 93.6432 111.75 93.1286 111.896L50.9286 111.857C50.4567 111.619 50.1621 111.395 50.0911 110.848C49.9208 109.565 49.9492 105.763 50.0983 104.448C50.446 101.385 53.551 100.052 56.3119 100.244C52.1316 97.4016 48.7356 93.4111 46.7164 88.7525C46.3722 88.5358 41.9826 88.8627 40.989 88.685C39.5341 88.4256 39.5305 86.3824 40.9429 86.194H63.1216C64.1472 86.3113 64.5233 87.6332 63.8242 88.3403C63.7852 88.3794 63.1536 88.7241 63.1145 88.7241H59.1685V88.7312ZM72.7774 33.4007L78.0399 36.0942L79.612 33.3297L74.36 30.4088L72.7774 33.4043V33.4007ZM75.9427 47.8668L79.4026 41.3249C79.8426 39.7294 78.7213 39.4131 77.5786 38.7664C74.9491 37.2775 72.1812 36.0019 69.5268 34.5556C68.1322 33.9657 67.5254 35.6252 66.9683 36.6059C61.145 46.8576 56.1806 57.6458 50.3963 67.9294C50.155 68.4944 50.1834 69.1838 50.5951 69.6528C53.9627 71.4331 57.2522 73.4479 60.7582 74.9226C61.5851 74.8799 61.8406 74.3291 62.2132 73.7144C64.0194 70.7473 65.4282 67.2934 67.1812 64.2694C57.7348 57.5676 65.1798 43.6133 75.9392 47.8703L75.9427 47.8668ZM71.7305 49.6008C62.8732 50.1196 63.6575 63.6795 72.6816 63.0044C81.2443 62.3612 80.3288 49.0962 71.7305 49.6008ZM49.5979 88.7312C51.94 93.9654 56.5283 98.0874 61.7802 100.322L80.7049 100.294C91.294 95.7208 97.1989 84.4564 94.8816 73.0606C93.4018 65.776 88.1996 59.1169 81.4182 56.1107C81.2798 58.0367 80.7724 59.8134 79.8213 61.4906C90.3004 66.7639 93.1641 80.9563 85.524 89.9855C77.5467 99.4164 62.9868 98.8016 55.8931 88.7312H49.5979ZM51.6951 73.0997L50.1018 76.0277L54.8498 78.6856C55.0557 78.7958 55.2508 78.8775 55.4708 78.7354C55.6909 78.5933 56.9932 76.0845 56.9116 75.9495L51.6916 73.0997H51.6951ZM91.5743 109.409V104.619C91.5743 103.769 89.6971 102.611 88.81 102.845L54.8853 102.853C54.1259 102.771 52.6178 103.919 52.6178 104.619V109.409H91.5708H91.5743Z"></path>
<rect stroke-width="1.5" stroke="#818181" rx="69.1979" height="138.396" width="138.396" y="0.75" x="0.75"></rect>
</svg>
