<svg xmlns="http://www.w3.org/2000/svg" fill="none" viewBox="0 0 140 140" height="140" width="140">
<rect stroke-width="1.5" stroke="#818181" rx="69.1979" height="138.396" width="138.396" y="0.75" x="0.75"></rect>
<path fill="#818181" d="M89.8211 104.842C84.9225 94.9626 76.9471 86.0531 77.3214 74.3438C79.8684 72.775 79.7392 68.8962 76.9306 67.6716C76.755 67.5955 75.9138 67.2811 75.831 67.2811H71.8201C72.191 62.5219 73.2641 57.9679 75.0129 53.5396C78.1362 53.4006 80.8852 52.8843 83.5182 51.1402C91.0531 46.1493 91.848 33.2948 88.1915 25.7523C86.9197 23.131 85.6181 26.5797 84.7636 27.46C83.0049 29.267 79.6564 30.667 77.5036 32.1232C70.3562 36.9652 67.627 45.0836 73.0853 52.4607C71.9989 55.1514 71.0186 57.9017 70.5118 60.7711L67.7463 55.4261C69.9157 42.8397 56.4522 38.1566 46.4067 42.0322C45.4926 42.383 43.522 43.1177 43.6876 44.2695C43.7803 44.9115 45.8304 45.9673 46.4366 46.563C48.3211 48.4131 49.2684 51.438 51.0237 53.5198C54.6537 57.8256 59.2939 59.3314 64.7754 57.7428C65.3252 57.584 65.7988 56.9982 66.332 57.4052C66.5672 57.584 67.3223 59.0269 67.5045 59.4009C68.6935 61.8567 69.2267 64.5904 69.5811 67.2778H65.5703C65.4742 67.2778 64.3713 67.6683 64.1891 67.761C61.4931 69.108 61.5792 72.9372 64.1096 74.4265C64.0898 86.586 55.9421 95.8098 50.8383 106.152C49.2584 109.886 51.7458 113.96 55.7037 114.499C65.2987 114.013 75.6488 115.214 85.1577 114.526C87.8073 114.334 89.9304 112.748 90.7087 110.203C91.3843 107.983 90.7749 106.775 89.8177 104.842H89.8211ZM72.8435 47.1918C71.4326 42.5683 73.6384 38.4048 76.9538 35.2938L86.923 28.7805C87.9895 33.0069 88.5691 37.1803 87.4298 41.4662C86.042 46.6921 82.0411 51.1964 76.2947 51.0938C77.7751 48.0556 79.812 45.3054 82.0377 42.7702C82.3425 40.9532 81.117 40.6024 79.8319 41.8865C77.5566 44.1602 76.1854 47.0925 74.473 49.7435C74.3571 49.9256 74.4929 50.0778 74.059 49.9818C73.7709 48.9956 73.1449 48.1781 72.8435 47.1918ZM65.663 52.9571C64.6959 52.1066 61.0725 48.8963 59.9199 49.1743C59.072 49.3795 58.764 50.3558 59.3171 51.0111C59.751 51.5274 62.1191 52.8016 62.957 53.5198C63.1624 53.6985 64.8118 55.2706 64.7323 55.3732C60.0259 57.2431 55.7103 55.7207 52.6168 51.9312C51.2556 50.2631 50.5137 48.0656 49.2253 46.3876C48.9504 46.0302 46.9996 44.2628 47.2049 44.0312C54.3755 41.3305 65.9975 43.5049 65.6663 52.9571H65.663ZM71.8201 69.5084H75.6422C76.2781 69.5084 76.871 70.4219 76.871 71.0904C76.871 71.759 76.2781 72.6724 75.6422 72.6724H71.8201V69.5118V69.5084ZM65.8021 69.5548C66.2724 69.472 69.1704 69.429 69.4056 69.5912L69.4983 72.497C69.3162 72.7552 66.64 72.7287 66.13 72.6724C63.8745 72.4176 63.8778 69.899 65.8021 69.5548ZM63.2154 88.5452C65.1695 84.3255 66.0372 79.5233 66.226 74.9031H69.5811V84.4811C69.5811 85.5137 71.8201 85.5137 71.8201 84.4811V74.9031H74.9897C75.3044 78.0571 75.6654 81.188 76.5331 84.2428C77.7321 88.446 80.0505 91.9177 82.0742 95.7337H72.0056C71.2438 91.5305 65.5669 90.3788 63.0862 93.8141C62.6159 94.4661 62.5 95.1247 62.0264 95.7337H59.3237C60.3637 93.2184 62.076 91.0076 63.2121 88.5452H63.2154ZM69.5811 95.7337H64.7323C65.1562 93.4666 69.1009 93.4302 69.5811 95.7337ZM85.3399 112.285L56.2402 112.292C54.8359 112.242 53.6866 111.487 53.0706 110.246C52.1863 108.466 52.6367 107.579 53.4448 105.957C54.7763 103.29 56.6244 100.734 57.8598 97.9942H83.2566C83.4917 98.0703 84.6609 100.212 84.9027 100.629C85.8996 102.346 87.8305 105.408 88.4499 107.135C89.3309 109.594 87.8736 111.848 85.3399 112.285Z"></path>
<path fill="#818181" d="M76.4432 101.731C70.6471 102.204 71.3228 111.136 77.1255 110.799C83.1037 110.455 82.5374 101.231 76.4432 101.731ZM77.8276 108.33C74.4692 109.703 73.2835 104.325 76.622 103.951C79.0995 103.673 80.1693 107.373 77.8276 108.33Z"></path>
<path fill="#818181" d="M65.008 101.128C64.392 100.668 63.5971 100.347 62.8254 100.424C59.3908 100.768 58.9105 105.56 62.2027 106.53C65.4949 107.499 67.7471 103.174 65.008 101.128ZM63.8091 104.021C62.7624 105.626 61.2621 102.806 62.9877 102.654C63.6401 102.598 64.2462 103.346 63.8091 104.021Z"></path>
</svg>
