<svg xmlns="http://www.w3.org/2000/svg" fill="none" viewBox="0 0 140 140" height="140" width="140">
<path fill="#818181" d="M107.384 56.0336C105.952 49.1297 100.908 44.0676 93.5502 42.1454C84.8815 39.8802 75.0901 42.5101 69.5295 48.5487C67.847 46.781 66.0842 45.3872 64.1544 44.3025C63.8482 44.1294 63.44 43.9625 63.007 43.7833C62.5029 43.5762 61.9277 43.3383 61.7112 43.159C61.4081 42.9087 60.9937 42.3494 60.5916 41.8116C60.2576 41.3635 59.9422 40.9402 59.6515 40.6311C56.2186 36.9906 52.9868 34.4998 50.0487 33.2297C48.8519 32.7105 45.8644 31.6196 43.9593 32.6672C43.1397 33.1184 42.6356 33.891 42.4624 34.9664C42.1037 37.2193 42.6944 39.6638 43.2139 41.8178C43.2943 42.1516 43.3748 42.4853 43.4521 42.8098C38.2193 44.6919 34.604 48.1037 32.7081 52.9494C29.4361 61.3089 32.1824 71.4824 35.8441 78.2132C42.9201 91.2268 56.6423 99.8799 68.9326 106.963C69.1336 107.09 69.3192 107.133 69.4893 107.133C69.6284 107.133 69.7614 107.105 69.8882 107.074C70.5222 106.917 71.9479 106.058 73.4788 105.115C73.7911 104.923 74.0571 104.76 74.2489 104.645C79.4878 101.552 89.3102 95.266 96.2068 87.9449C103.465 80.2405 109.737 67.3845 107.381 56.0367L107.384 56.0336ZM57.3598 65.7466C57.301 65.793 57.2454 65.8455 57.1928 65.9043C55.9001 67.3629 54.8486 69.2697 53.9857 71.7204C47.7663 68.0026 40.9192 65.9722 34.5916 65.9722C34.573 65.9722 34.5576 65.9722 34.5421 65.9722C34.4215 65.4469 34.2328 64.2787 34.1895 63.8924C33.7287 59.8842 34.2947 55.9996 35.7823 52.9494C37.8296 48.7526 41.5037 46.5894 44.3768 45.4923C47.3427 53.7158 51.8239 60.7031 57.3598 65.7466ZM45.5953 70.8736C48.5735 71.912 50.8621 72.9936 52.594 74.1772C52.761 74.2915 52.9528 74.4677 53.1569 74.6562C53.7074 75.163 54.3321 75.7348 55.0341 75.6019C55.4516 75.5215 55.7949 75.2032 56.0578 74.6593C56.4196 73.9052 56.6887 73.0708 56.9485 72.2673C57.4526 70.7036 57.9752 69.0843 59.2185 67.9161C59.3948 67.7492 59.6298 67.6194 59.8772 67.4773C60.4525 67.1559 61.238 66.7108 61.0555 65.6632C60.9937 65.3047 60.5174 64.7948 58.368 62.7984C57.8392 62.3071 57.3412 61.8435 57.1495 61.6395C52.4734 56.5898 48.2179 49.0184 46.3066 42.3525C45.5922 39.8554 44.8531 35.6247 45.3417 35.121C45.8087 34.6512 48.4096 35.5227 50.3364 36.5827C57.6938 40.6373 63.7895 50.1248 66.5636 57.7271C66.6656 58.0052 66.8574 58.6419 67.0801 59.3805C68.0512 62.6006 68.3635 63.4474 68.6635 63.6946C69.0903 64.0408 69.8449 64.0933 70.5748 64.1458C70.8686 64.1675 71.1438 64.186 71.3325 64.2231C75.4643 65.0297 78.8971 66.9952 81.8259 70.2339C84.2289 72.8885 88.1597 79.3011 87.4453 82.6232C86.9876 84.7463 83.6629 85.76 78.0838 85.4725C77.7683 85.4571 77.4158 85.3829 77.0756 85.3149C76.2962 85.1542 75.4921 84.9904 74.9416 85.4695C74.5643 85.797 74.4097 86.3533 74.4654 87.163C74.5365 88.189 74.6416 89.0388 74.7437 89.8609C74.9818 91.7893 75.1736 93.3128 74.7406 95.8562C74.4623 97.4849 73.3334 101.369 72.5943 102.182C72.3345 102.408 70.0212 103.755 69.7088 103.882L69.6222 103.919C69.5975 103.931 69.5635 103.944 69.548 103.953C55.2908 95.6832 39.7656 85.4695 35.2627 68.8308C39.0667 68.7752 42.7562 69.8816 45.5891 70.8705L45.5953 70.8736ZM77.5982 88.2353C81.4239 88.6495 86.1433 88.2755 88.6081 86.0195C89.8638 84.8699 90.4606 83.3402 90.3771 81.4736C90.0184 73.4324 81.5166 64.3034 74.719 62.1062C73.6551 61.7631 72.5572 61.5654 71.4964 61.3738C71.2335 61.3274 70.9675 61.278 70.7047 61.2285C69.4398 57.004 68.1223 53.6323 66.5729 50.6285C66.2698 50.0413 65.9265 49.4727 65.5925 48.9195C65.5121 48.7866 65.4286 48.6507 65.3482 48.5147C65.4966 48.6259 65.6389 48.7403 65.775 48.8608C66.2358 49.2595 66.7058 49.8095 67.1574 50.338C67.6213 50.8819 68.0573 51.3918 68.4996 51.7688C69.1645 52.3344 69.8573 52.3375 70.5593 51.775C70.9552 51.4598 71.3727 50.9653 71.818 50.44C72.2077 49.9795 72.6128 49.5005 72.9809 49.176C78.3095 44.4817 86.9721 42.8624 94.0481 45.242C99.7788 47.1673 103.552 51.3022 104.678 56.8803C106.376 65.3016 102.275 74.0752 99.6799 78.5563C94.4471 87.5895 85.2371 94.1658 76.7725 99.6172C77.957 95.8655 78.2415 91.9685 77.5982 88.2292V88.2353Z"></path>
<path fill="#818181" d="M75.639 75.9231C75.7287 75.9324 75.8184 75.9355 75.905 75.9355C76.7709 75.9355 77.4884 75.5245 77.9059 74.7797C78.4008 73.8989 78.3389 72.7431 77.7575 71.9675C77.1915 71.2134 76.2266 70.9291 75.1102 71.1887C73.9504 71.4575 73.4123 72.6381 73.4803 73.6703C73.5638 74.9219 74.4112 75.8057 75.6421 75.9231H75.639Z"></path>
<rect stroke-width="1.5" stroke="#818181" rx="69.1979" height="138.396" width="138.396" y="0.75" x="0.75"></rect>
</svg>
